<svg width="29" height="28" viewBox="0 0 29 28" fill="none" xmlns="http://www.w3.org/2000/svg">
<path d="M10.4891 14.0972C11.6018 14.0972 12.669 13.457 13.4558 12.3175C14.2427 11.178 14.6847 9.63241 14.6847 8.02085C14.6847 6.40929 14.2427 4.86374 13.4558 3.72419C12.669 2.58465 11.6018 1.94446 10.4891 1.94446C9.37636 1.94446 8.30919 2.58465 7.52237 3.72419C6.73554 4.86374 6.2935 6.40929 6.2935 8.02085C6.2935 9.63241 6.73554 11.178 7.52237 12.3175C8.30919 13.457 9.37636 14.0972 10.4891 14.0972ZM13.2862 8.02085C13.2862 9.09522 12.9915 10.1256 12.4669 10.8853C11.9424 11.645 11.2309 12.0718 10.4891 12.0718C9.74727 12.0718 9.03583 11.645 8.51128 10.8853C7.98673 10.1256 7.69204 9.09522 7.69204 8.02085C7.69204 6.94648 7.98673 5.91611 8.51128 5.15641C9.03583 4.39671 9.74727 3.96992 10.4891 3.96992C11.2309 3.96992 11.9424 4.39671 12.4669 5.15641C12.9915 5.91611 13.2862 6.94648 13.2862 8.02085ZM18.8803 24.2246C18.8803 26.25 17.4818 26.25 17.4818 26.25H3.49643C3.49643 26.25 2.0979 26.25 2.0979 24.2246C2.0979 22.1991 3.49643 16.1227 10.4891 16.1227C17.4818 16.1227 18.8803 22.1991 18.8803 24.2246ZM17.4818 24.2165C17.4804 23.7182 17.2664 22.2193 16.3182 20.8461C15.4063 19.5255 13.6903 18.1482 10.4891 18.1482C7.28646 18.1482 5.57186 19.5255 4.66001 20.8461C3.71181 22.2193 3.49923 23.7182 3.49643 24.2165H17.4818Z" fill="white"/>
<path fill-rule="evenodd" clip-rule="evenodd" d="M20.5416 3.65218C20.798 3.65218 21.0439 3.79326 21.2252 4.0444C21.4065 4.29553 21.5083 4.63615 21.5083 4.99131V9.0087H24.4083C24.6647 9.0087 24.9106 9.14978 25.0919 9.40092C25.2731 9.65206 25.375 9.99267 25.375 10.3478C25.375 10.703 25.2731 11.0436 25.0919 11.2947C24.9106 11.5459 24.6647 11.687 24.4083 11.687H21.5083V15.7043C21.5083 16.0595 21.4065 16.4001 21.2252 16.6513C21.0439 16.9024 20.798 17.0435 20.5416 17.0435C20.2853 17.0435 20.0394 16.9024 19.8581 16.6513C19.6768 16.4001 19.575 16.0595 19.575 15.7043V11.687H16.675C16.4186 11.687 16.1727 11.5459 15.9914 11.2947C15.8102 11.0436 15.7083 10.703 15.7083 10.3478C15.7083 9.99267 15.8102 9.65206 15.9914 9.40092C16.1727 9.14978 16.4186 9.0087 16.675 9.0087H19.575V4.99131C19.575 4.63615 19.6768 4.29553 19.8581 4.0444C20.0394 3.79326 20.2853 3.65218 20.5416 3.65218Z" fill="#8A6BEE"/>
</svg>
